<svg width="90" height="73" viewBox="0 0 90 73" fill="none" xmlns="http://www.w3.org/2000/svg">
<path opacity="0.65" d="M17.4105 72.598C11.3026 72.5743 6.04688 71.071 1.64347 68.0881C-2.73627 65.1051 -6.10985 60.7846 -8.47727 55.1264C-10.821 49.4683 -11.9811 42.6619 -11.9574 34.7074C-11.9574 26.7765 -10.7855 20.0175 -8.44176 14.4304C-6.07434 8.84327 -2.70076 4.59375 1.67898 1.68182C6.08239 -1.25379 11.3262 -2.72159 17.4105 -2.72159C23.4948 -2.72159 28.7268 -1.25379 33.1065 1.68182C37.5099 4.61742 40.8954 8.87879 43.2628 14.4659C45.6302 20.0294 46.8021 26.7765 46.7784 34.7074C46.7784 42.6856 45.5947 49.5038 43.2273 55.1619C40.8835 60.8201 37.5218 65.1406 33.142 68.1236C28.7623 71.1065 23.5185 72.598 17.4105 72.598ZM17.4105 59.8494C21.5772 59.8494 24.9034 57.7543 27.3892 53.5639C29.875 49.3736 31.1061 43.0881 31.0824 34.7074C31.0824 29.1913 30.5142 24.5985 29.3778 20.929C28.2652 17.2595 26.679 14.5014 24.6193 12.6548C22.5833 10.8082 20.1804 9.88494 17.4105 9.88494C13.2675 9.88494 9.95313 11.9564 7.46733 16.0994C4.98153 20.2424 3.7268 26.4451 3.70312 34.7074C3.70312 40.2945 4.25947 44.9583 5.37216 48.6989C6.50852 52.4157 8.10653 55.2093 10.1662 57.0795C12.2259 58.9261 14.6406 59.8494 17.4105 59.8494ZM89.3832 -1.72727V71H74.0067V12.8679H73.5806L56.9258 23.3082V9.67188L74.93 -1.72727H89.3832Z" fill="#FFEDCA"/>
</svg>
