<svg width="27" height="26" viewBox="0 0 27 26" fill="none" xmlns="http://www.w3.org/2000/svg">
<path d="M22.1255 18.9878C22.1361 18.5235 22.3786 18.1024 22.7332 17.8024C24.9417 15.9336 26.2992 13.3957 26.2992 10.6002C26.2992 4.85643 20.5685 0.200195 13.4992 0.200195C6.42997 0.200195 0.699219 4.85643 0.699219 10.6002C0.699219 16.344 6.42997 21.0002 13.4992 21.0002C13.8883 21.0002 14.2732 20.9861 14.6535 20.9585C14.8826 20.9418 15.1091 21.0187 15.2788 21.1736C16.175 21.992 17.2842 22.8927 18.2992 23.4002C20.5308 24.516 22.7623 25.2427 23.9086 25.5804C24.1885 25.6628 24.414 25.3543 24.2622 25.1052C23.6688 24.1311 22.6429 22.3303 22.2992 21.0002C22.1445 20.4015 22.1099 19.665 22.1255 18.9878Z" fill="#FABD45"/>
<path d="M22.1255 18.9878C22.1361 18.5235 22.3786 18.1024 22.7332 17.8024C24.9417 15.9336 26.2992 13.3957 26.2992 10.6002C26.2992 4.85643 20.5685 0.200195 13.4992 0.200195C6.42997 0.200195 0.699219 4.85643 0.699219 10.6002C0.699219 16.344 6.42997 21.0002 13.4992 21.0002C13.8883 21.0002 14.2732 20.9861 14.6535 20.9585C14.8826 20.9418 15.1091 21.0187 15.2788 21.1736C16.175 21.992 17.2842 22.8927 18.2992 23.4002C20.5308 24.516 22.7623 25.2427 23.9086 25.5804C24.1885 25.6628 24.414 25.3543 24.2622 25.1052C23.6688 24.1311 22.6429 22.3303 22.2992 21.0002C22.1445 20.4015 22.1099 19.665 22.1255 18.9878Z" fill="url(#paint0_linear_1617_3882)" fill-opacity="0.8"/>
<defs>
<linearGradient id="paint0_linear_1617_3882" x1="0.832031" y1="3.66687" x2="24.1654" y2="27.0002" gradientUnits="userSpaceOnUse">
<stop stop-color="white"/>
<stop offset="1" stop-color="white" stop-opacity="0"/>
</linearGradient>
</defs>
</svg>
