<svg width="18" height="26" viewBox="0 0 18 26" fill="none" xmlns="http://www.w3.org/2000/svg">
<path d="M1.15201 15.7828C0.282665 16.6521 0.282665 18.0616 1.15201 18.931L7.36923 25.1482C8.23857 26.0175 9.64805 26.0175 10.5174 25.1482L16.7346 18.931C17.604 18.0616 17.604 16.6521 16.7346 15.7828C15.8653 14.9135 14.4558 14.9135 13.5865 15.7828L11.1694 18.1999V2.42628C11.1694 1.19685 10.1727 0.200195 8.94331 0.200195C7.71388 0.200195 6.71722 1.19685 6.71722 2.42628V18.1999C6.71722 18.1999 5.41626 16.8989 4.29977 15.7824C3.43043 14.9131 2.02135 14.9135 1.15201 15.7828Z" fill="#FABD45"/>
<path d="M1.15201 15.7828C0.282665 16.6521 0.282665 18.0616 1.15201 18.931L7.36923 25.1482C8.23857 26.0175 9.64805 26.0175 10.5174 25.1482L16.7346 18.931C17.604 18.0616 17.604 16.6521 16.7346 15.7828C15.8653 14.9135 14.4558 14.9135 13.5865 15.7828L11.1694 18.1999V2.42628C11.1694 1.19685 10.1727 0.200195 8.94331 0.200195C7.71388 0.200195 6.71722 1.19685 6.71722 2.42628V18.1999C6.71722 18.1999 5.41626 16.8989 4.29977 15.7824C3.43043 14.9131 2.02135 14.9135 1.15201 15.7828Z" fill="url(#paint0_linear_1559_500)" fill-opacity="0.8"/>
<defs>
<linearGradient id="paint0_linear_1559_500" x1="0.587607" y1="3.69502" x2="22.1422" y2="17.7986" gradientUnits="userSpaceOnUse">
<stop stop-color="white"/>
<stop offset="1" stop-color="white" stop-opacity="0"/>
</linearGradient>
</defs>
</svg>
