<svg width="29" height="30" viewBox="0 0 29 30" fill="none" xmlns="http://www.w3.org/2000/svg">
<path d="M16.2996 2.39961C16.2996 1.92222 16.11 1.46438 15.7724 1.12682C15.4348 0.789252 14.977 0.599609 14.4996 0.599609C14.0222 0.599609 13.5644 0.789252 13.2268 1.12682C12.8893 1.46438 12.6996 1.92222 12.6996 2.39961V4.19961C12.6996 4.677 12.8893 5.13484 13.2268 5.4724C13.5644 5.80997 14.0222 5.99961 14.4996 5.99961C14.977 5.99961 15.4348 5.80997 15.7724 5.4724C16.11 5.13484 16.2996 4.677 16.2996 4.19961V2.39961ZM24.6822 7.36221C25.0101 7.02273 25.1915 6.56804 25.1874 6.09609C25.1833 5.62413 24.994 5.17267 24.6603 4.83894C24.3265 4.5052 23.8751 4.3159 23.4031 4.3118C22.9312 4.30769 22.4765 4.48912 22.137 4.81701L20.8644 6.08961C20.5365 6.42909 20.3551 6.88378 20.3592 7.35573C20.3633 7.82769 20.5526 8.27915 20.8863 8.61288C21.2201 8.94662 21.6715 9.13592 22.1435 9.14002C22.6154 9.14412 23.0701 8.96269 23.4096 8.63481L24.6822 7.36221ZM28.8996 14.9996C28.8996 15.477 28.71 15.9348 28.3724 16.2724C28.0348 16.61 27.577 16.7996 27.0996 16.7996H25.2996C24.8222 16.7996 24.3644 16.61 24.0268 16.2724C23.6893 15.9348 23.4996 15.477 23.4996 14.9996C23.4996 14.5222 23.6893 14.0644 24.0268 13.7268C24.3644 13.3893 24.8222 13.1996 25.2996 13.1996H27.0996C27.577 13.1996 28.0348 13.3893 28.3724 13.7268C28.71 14.0644 28.8996 14.5222 28.8996 14.9996ZM5.58961 8.63481C5.75565 8.80673 5.95427 8.94386 6.17388 9.03819C6.39349 9.13253 6.62968 9.18218 6.86869 9.18426C7.10769 9.18634 7.34471 9.14079 7.56593 9.05029C7.78714 8.95978 7.98811 8.82613 8.15712 8.65712C8.32613 8.48811 8.45978 8.28714 8.55029 8.06593C8.64079 7.84471 8.68634 7.60769 8.68426 7.36869C8.68218 7.12968 8.63253 6.89349 8.53819 6.67388C8.44386 6.45427 8.30673 6.25565 8.13481 6.08961L6.86221 4.81701C6.52273 4.48912 6.06804 4.30769 5.59609 4.3118C5.12413 4.3159 4.67267 4.5052 4.33894 4.83894C4.0052 5.17267 3.8159 5.62413 3.8118 6.09609C3.80769 6.56804 3.98912 7.02273 4.31701 7.36221L5.58961 8.63481V8.63481ZM5.49961 14.9996C5.49961 15.477 5.30997 15.9348 4.9724 16.2724C4.63484 16.61 4.177 16.7996 3.69961 16.7996H1.89961C1.42222 16.7996 0.964383 16.61 0.626817 16.2724C0.289252 15.9348 0.0996094 15.477 0.0996094 14.9996C0.0996094 14.5222 0.289252 14.0644 0.626817 13.7268C0.964383 13.3893 1.42222 13.1996 1.89961 13.1996H3.69961C4.177 13.1996 4.63484 13.3893 4.9724 13.7268C5.30997 14.0644 5.49961 14.5222 5.49961 14.9996ZM10.8996 25.7996V23.9996H18.0996V25.7996C18.0996 26.7544 17.7203 27.6701 17.0452 28.3452C16.3701 29.0203 15.4544 29.3996 14.4996 29.3996C13.5448 29.3996 12.6292 29.0203 11.954 28.3452C11.2789 27.6701 10.8996 26.7544 10.8996 25.7996V25.7996ZM18.0996 22.1996C18.1266 21.5876 18.474 21.0368 18.9582 20.6534C20.133 19.7269 20.99 18.4573 21.4101 17.0213C21.8301 15.5852 21.7923 14.054 21.302 12.6404C20.8116 11.2268 19.8931 10.0011 18.674 9.13362C17.4549 8.26614 15.9958 7.80001 14.4996 7.80001C13.0034 7.80001 11.5443 8.26614 10.3252 9.13362C9.10615 10.0011 8.18759 11.2268 7.69724 12.6404C7.20689 14.054 7.16911 15.5852 7.58915 17.0213C8.00919 18.4573 8.86618 19.7269 10.041 20.6534C10.527 21.0368 10.8726 21.5876 10.8978 22.1996H18.1014H18.0996Z" fill="#FABD45"/>
<path d="M16.2996 2.39961C16.2996 1.92222 16.11 1.46438 15.7724 1.12682C15.4348 0.789252 14.977 0.599609 14.4996 0.599609C14.0222 0.599609 13.5644 0.789252 13.2268 1.12682C12.8893 1.46438 12.6996 1.92222 12.6996 2.39961V4.19961C12.6996 4.677 12.8893 5.13484 13.2268 5.4724C13.5644 5.80997 14.0222 5.99961 14.4996 5.99961C14.977 5.99961 15.4348 5.80997 15.7724 5.4724C16.11 5.13484 16.2996 4.677 16.2996 4.19961V2.39961ZM24.6822 7.36221C25.0101 7.02273 25.1915 6.56804 25.1874 6.09609C25.1833 5.62413 24.994 5.17267 24.6603 4.83894C24.3265 4.5052 23.8751 4.3159 23.4031 4.3118C22.9312 4.30769 22.4765 4.48912 22.137 4.81701L20.8644 6.08961C20.5365 6.42909 20.3551 6.88378 20.3592 7.35573C20.3633 7.82769 20.5526 8.27915 20.8863 8.61288C21.2201 8.94662 21.6715 9.13592 22.1435 9.14002C22.6154 9.14412 23.0701 8.96269 23.4096 8.63481L24.6822 7.36221ZM28.8996 14.9996C28.8996 15.477 28.71 15.9348 28.3724 16.2724C28.0348 16.61 27.577 16.7996 27.0996 16.7996H25.2996C24.8222 16.7996 24.3644 16.61 24.0268 16.2724C23.6893 15.9348 23.4996 15.477 23.4996 14.9996C23.4996 14.5222 23.6893 14.0644 24.0268 13.7268C24.3644 13.3893 24.8222 13.1996 25.2996 13.1996H27.0996C27.577 13.1996 28.0348 13.3893 28.3724 13.7268C28.71 14.0644 28.8996 14.5222 28.8996 14.9996ZM5.58961 8.63481C5.75565 8.80673 5.95427 8.94386 6.17388 9.03819C6.39349 9.13253 6.62968 9.18218 6.86869 9.18426C7.10769 9.18634 7.34471 9.14079 7.56593 9.05029C7.78714 8.95978 7.98811 8.82613 8.15712 8.65712C8.32613 8.48811 8.45978 8.28714 8.55029 8.06593C8.64079 7.84471 8.68634 7.60769 8.68426 7.36869C8.68218 7.12968 8.63253 6.89349 8.53819 6.67388C8.44386 6.45427 8.30673 6.25565 8.13481 6.08961L6.86221 4.81701C6.52273 4.48912 6.06804 4.30769 5.59609 4.3118C5.12413 4.3159 4.67267 4.5052 4.33894 4.83894C4.0052 5.17267 3.8159 5.62413 3.8118 6.09609C3.80769 6.56804 3.98912 7.02273 4.31701 7.36221L5.58961 8.63481V8.63481ZM5.49961 14.9996C5.49961 15.477 5.30997 15.9348 4.9724 16.2724C4.63484 16.61 4.177 16.7996 3.69961 16.7996H1.89961C1.42222 16.7996 0.964383 16.61 0.626817 16.2724C0.289252 15.9348 0.0996094 15.477 0.0996094 14.9996C0.0996094 14.5222 0.289252 14.0644 0.626817 13.7268C0.964383 13.3893 1.42222 13.1996 1.89961 13.1996H3.69961C4.177 13.1996 4.63484 13.3893 4.9724 13.7268C5.30997 14.0644 5.49961 14.5222 5.49961 14.9996ZM10.8996 25.7996V23.9996H18.0996V25.7996C18.0996 26.7544 17.7203 27.6701 17.0452 28.3452C16.3701 29.0203 15.4544 29.3996 14.4996 29.3996C13.5448 29.3996 12.6292 29.0203 11.954 28.3452C11.2789 27.6701 10.8996 26.7544 10.8996 25.7996V25.7996ZM18.0996 22.1996C18.1266 21.5876 18.474 21.0368 18.9582 20.6534C20.133 19.7269 20.99 18.4573 21.4101 17.0213C21.8301 15.5852 21.7923 14.054 21.302 12.6404C20.8116 11.2268 19.8931 10.0011 18.674 9.13362C17.4549 8.26614 15.9958 7.80001 14.4996 7.80001C13.0034 7.80001 11.5443 8.26614 10.3252 9.13362C9.10615 10.0011 8.18759 11.2268 7.69724 12.6404C7.20689 14.054 7.16911 15.5852 7.58915 17.0213C8.00919 18.4573 8.86618 19.7269 10.041 20.6534C10.527 21.0368 10.8726 21.5876 10.8978 22.1996H18.1014H18.0996Z" fill="url(#paint0_linear_1617_3881)" fill-opacity="0.8"/>
<defs>
<linearGradient id="paint0_linear_1617_3881" x1="0.249023" y1="4.53129" x2="26.7113" y2="30.7804" gradientUnits="userSpaceOnUse">
<stop stop-color="white"/>
<stop offset="1" stop-color="white" stop-opacity="0"/>
</linearGradient>
</defs>
</svg>
