<svg width="20" height="16" viewBox="0 0 20 16" fill="none" xmlns="http://www.w3.org/2000/svg">
<path d="M17.6804 4.3998L10.0004 8.89981L2.32039 4.3998V2.5998L10.0004 7.0998L17.6804 2.5998M17.6804 0.799805H2.32039C1.25479 0.799805 0.400391 1.6008 0.400391 2.5998V13.3998C0.400391 13.8772 0.602676 14.335 0.962746 14.6726C1.32282 15.0102 1.81118 15.1998 2.32039 15.1998H17.6804C18.1896 15.1998 18.678 15.0102 19.038 14.6726C19.3981 14.335 19.6004 13.8772 19.6004 13.3998V2.5998C19.6004 2.12242 19.3981 1.66458 19.038 1.32701C18.678 0.989447 18.1896 0.799805 17.6804 0.799805V0.799805Z" fill="#98B4B4"/>
</svg>
