<svg width="29" height="24" viewBox="0 0 29 24" fill="none" xmlns="http://www.w3.org/2000/svg">
<path d="M22.0606 9.43882H15.2206V11.9588C15.2206 13.7453 13.7671 15.1988 11.9806 15.1988C10.1941 15.1988 8.74062 13.7453 8.74062 11.9588V6.48682L5.82012 8.24182C4.95163 8.75932 4.42063 9.69982 4.42063 10.7078V12.8363L0.820634 14.9153C0.132136 15.3113 -0.106364 16.1933 0.294135 16.8818L3.89413 23.1188C4.29013 23.8073 5.17213 24.0413 5.86063 23.6453L10.5136 20.9588H16.6606C18.2491 20.9588 19.5406 19.6673 19.5406 18.0788H20.2606C21.0571 18.0788 21.7006 17.4353 21.7006 16.6388V13.7588H22.0606C22.6591 13.7588 23.1406 13.2773 23.1406 12.6788V10.5188C23.1406 9.92031 22.6591 9.43882 22.0606 9.43882ZM28.7071 7.75582L25.1071 1.51883C24.7111 0.830331 23.8291 0.596332 23.1406 0.992331L18.4876 3.67883H13.8886C13.3486 3.67883 12.8221 3.83183 12.3631 4.11533L10.8556 5.05582C10.4326 5.31682 10.1806 5.78032 10.1806 6.27532V11.9588C10.1806 12.9533 10.9861 13.7588 11.9806 13.7588C12.9751 13.7588 13.7806 12.9533 13.7806 11.9588V7.99882H22.0606C23.4511 7.99882 24.5806 9.12832 24.5806 10.5188V11.8013L28.1806 9.72232C28.8691 9.32182 29.1031 8.44432 28.7071 7.75582V7.75582Z" fill="url(#paint0_linear_1791_3899)"/>
<defs>
<linearGradient id="paint0_linear_1791_3899" x1="0.0996096" y1="12.3188" x2="28.8996" y2="12.3188" gradientUnits="userSpaceOnUse">
<stop stop-color="#FFD480"/>
<stop offset="1" stop-color="#FABD45"/>
</linearGradient>
</defs>
</svg>
