<svg width="20" height="20" viewBox="0 0 20 20" fill="none" xmlns="http://www.w3.org/2000/svg">
<path d="M5.96839 0.399902H14.0324C17.1044 0.399902 19.6004 2.8959 19.6004 5.9679V14.0319C19.6004 15.5086 19.0138 16.9249 17.9696 17.9691C16.9254 19.0133 15.5091 19.5999 14.0324 19.5999H5.96839C2.89639 19.5999 0.400391 17.1039 0.400391 14.0319V5.9679C0.400391 4.49118 0.987018 3.07493 2.03122 2.03073C3.07542 0.986529 4.49167 0.399902 5.96839 0.399902M5.77639 2.3199C4.8598 2.3199 3.98076 2.68402 3.33263 3.33214C2.6845 3.98027 2.32039 4.85931 2.32039 5.7759V14.2239C2.32039 16.1343 3.86599 17.6799 5.77639 17.6799H14.2244C15.141 17.6799 16.02 17.3158 16.6682 16.6677C17.3163 16.0195 17.6804 15.1405 17.6804 14.2239V5.7759C17.6804 3.8655 16.1348 2.3199 14.2244 2.3199H5.77639ZM15.0404 3.7599C15.3587 3.7599 15.6639 3.88633 15.8889 4.11137C16.114 4.33642 16.2404 4.64164 16.2404 4.9599C16.2404 5.27816 16.114 5.58339 15.8889 5.80843C15.6639 6.03347 15.3587 6.1599 15.0404 6.1599C14.7221 6.1599 14.4169 6.03347 14.1919 5.80843C13.9668 5.58339 13.8404 5.27816 13.8404 4.9599C13.8404 4.64164 13.9668 4.33642 14.1919 4.11137C14.4169 3.88633 14.7221 3.7599 15.0404 3.7599ZM10.0004 5.1999C11.2734 5.1999 12.4943 5.70562 13.3945 6.60579C14.2947 7.50596 14.8004 8.72686 14.8004 9.9999C14.8004 11.2729 14.2947 12.4938 13.3945 13.394C12.4943 14.2942 11.2734 14.7999 10.0004 14.7999C8.72735 14.7999 7.50645 14.2942 6.60628 13.394C5.7061 12.4938 5.20039 11.2729 5.20039 9.9999C5.20039 8.72686 5.7061 7.50596 6.60628 6.60579C7.50645 5.70562 8.72735 5.1999 10.0004 5.1999M10.0004 7.1199C9.23657 7.1199 8.50403 7.42333 7.96392 7.96343C7.42382 8.50354 7.12039 9.23608 7.12039 9.9999C7.12039 10.7637 7.42382 11.4963 7.96392 12.0364C8.50403 12.5765 9.23657 12.8799 10.0004 12.8799C10.7642 12.8799 11.4968 12.5765 12.0369 12.0364C12.577 11.4963 12.8804 10.7637 12.8804 9.9999C12.8804 9.23608 12.577 8.50354 12.0369 7.96343C11.4968 7.42333 10.7642 7.1199 10.0004 7.1199Z" fill="#98B4B4"/>
</svg>
