<svg width="21" height="20" viewBox="0 0 21 20" fill="none" xmlns="http://www.w3.org/2000/svg">
<path fill-rule="evenodd" clip-rule="evenodd" d="M0.900391 2.00398C0.900391 1.57855 1.06939 1.17055 1.37021 0.869726C1.67103 0.568904 2.07904 0.399904 2.50446 0.399904H18.4946C18.7054 0.39956 18.9142 0.440803 19.1091 0.521272C19.304 0.601741 19.481 0.719855 19.6302 0.868852C19.7794 1.01785 19.8977 1.1948 19.9784 1.38959C20.059 1.58437 20.1005 1.79315 20.1004 2.00398V17.9941C20.1006 18.205 20.0593 18.4138 19.9787 18.6087C19.8981 18.8035 19.7799 18.9806 19.6309 19.1298C19.4818 19.2789 19.3048 19.3972 19.11 19.4779C18.9151 19.5586 18.7063 19.6 18.4954 19.5999H2.50446C2.29374 19.5999 2.08508 19.5584 1.89041 19.4777C1.69574 19.397 1.51887 19.2788 1.3699 19.1298C1.22094 18.9807 1.1028 18.8038 1.02224 18.6091C0.941682 18.4144 0.900276 18.2057 0.900391 17.995V2.00398ZM8.5001 7.72034H11.1V9.02594C11.4752 8.2754 12.4352 7.5999 13.8778 7.5999C16.6435 7.5999 17.2989 9.09489 17.2989 11.8379V16.9189H14.5001V12.4627C14.5001 10.9006 14.1248 10.0191 13.1718 10.0191C11.8496 10.0191 11.2998 10.9695 11.2998 12.4627V16.9189H8.5001V7.72034ZM3.7001 16.7993H6.49981V7.5999H3.7001V16.7984V16.7993ZM6.90039 4.59947C6.90567 4.83918 6.86301 5.07754 6.77493 5.30054C6.68684 5.52355 6.5551 5.72671 6.38743 5.89811C6.21976 6.06951 6.01955 6.2057 5.79853 6.29867C5.57752 6.39165 5.34016 6.43954 5.10039 6.43954C4.86062 6.43954 4.62326 6.39165 4.40225 6.29867C4.18124 6.2057 3.98102 6.06951 3.81335 5.89811C3.64568 5.72671 3.51394 5.52355 3.42585 5.30054C3.33777 5.07754 3.29511 4.83918 3.30039 4.59947C3.31075 4.12894 3.50494 3.68118 3.84138 3.35207C4.17782 3.02296 4.62975 2.83867 5.10039 2.83867C5.57103 2.83867 6.02296 3.02296 6.3594 3.35207C6.69584 3.68118 6.89003 4.12894 6.90039 4.59947V4.59947Z" fill="#98B4B4"/>
</svg>
