<svg width="24" height="24" viewBox="0 0 24 24" fill="none" xmlns="http://www.w3.org/2000/svg">
<path d="M13.1339 8V13.5197C13.1339 14.1198 13.1589 14.5038 13.209 14.6719C13.2591 14.8351 13.3638 14.9695 13.5232 15.0751C13.6826 15.1807 13.9376 15.2336 14.2883 15.2336H14.5V16H9.62295V15.2336H9.86885C10.265 15.2336 10.5474 15.1856 10.7158 15.0895C10.8843 14.9935 10.9982 14.8615 11.0574 14.6935C11.1166 14.5254 11.1462 14.1342 11.1462 13.5197V11.4237C11.1462 10.9724 11.1257 10.6916 11.0847 10.5811C11.0437 10.4659 10.9663 10.3699 10.8525 10.2931C10.7432 10.2115 10.6157 10.1707 10.4699 10.1707C10.2377 10.1707 9.95537 10.2475 9.62295 10.4011L9.5 9.5L12.9085 8H13.1339Z" fill="#E6A117"/>
<path fill-rule="evenodd" clip-rule="evenodd" d="M4 4C3.20435 4 2.44128 4.31604 1.87866 4.87866C1.31604 5.44128 1 6.20435 1 7V17C1 17.7957 1.31604 18.5587 1.87866 19.1213C2.44128 19.684 3.20435 20 4 20H20C20.7957 20 21.5587 19.684 22.1213 19.1213C22.684 18.5587 23 17.7957 23 17V7C23 6.20435 22.684 5.44128 22.1213 4.87866C21.5587 4.31604 20.7957 4 20 4H4ZM4 6H5.19739C4.67053 6.91095 3.91089 7.67047 3 8.19739V7C3 6.7348 3.10535 6.48041 3.29285 6.29291C3.48047 6.10535 3.73474 6 4 6ZM3 10.4185C5.00549 9.60681 6.60681 8.00543 7.41858 6H16.5834C17.3949 8.00482 18.9955 9.60571 21 10.4177V13.5823C18.9955 14.3943 17.3949 15.9952 16.5834 18H7.41858C6.60681 15.9946 5.00549 14.3932 3 13.5815V10.4185ZM3 15.8026V17C3 17.2652 3.10535 17.5196 3.29285 17.7071C3.48047 17.8947 3.73474 18 4 18H5.19739C4.67053 17.0891 3.91089 16.3295 3 15.8026ZM18.8046 18H20C20.2653 18 20.5195 17.8947 20.7072 17.7071C20.8947 17.5196 21 17.2652 21 17V15.8038C20.09 16.3306 19.3311 17.0897 18.8046 18ZM21 8.19623C20.09 7.66937 19.3311 6.91028 18.8046 6H20C20.2653 6 20.5195 6.10535 20.7072 6.29291C20.8947 6.48041 21 6.7348 21 7V8.19623Z" fill="url(#paint0_linear_1341_4169)"/>
<defs>
<linearGradient id="paint0_linear_1341_4169" x1="1" y1="12" x2="23" y2="12" gradientUnits="userSpaceOnUse">
<stop stop-color="#00ADAD"/>
<stop offset="1" stop-color="#008080"/>
</linearGradient>
</defs>
</svg>
