<svg width="24" height="24" viewBox="0 0 24 24" fill="none" xmlns="http://www.w3.org/2000/svg">
<path fill-rule="evenodd" clip-rule="evenodd" d="M10.9551 13C14.2688 13 16.9551 10.3137 16.9551 7C16.9551 3.68629 14.2688 1 10.9551 1C7.64137 1 4.95508 3.68629 4.95508 7C4.95508 10.3137 7.64137 13 10.9551 13ZM10.9551 11C13.1642 11 14.9551 9.20914 14.9551 7C14.9551 4.79086 13.1642 3 10.9551 3C8.74594 3 6.95508 4.79086 6.95508 7C6.95508 9.20914 8.74594 11 10.9551 11Z" fill="url(#paint0_linear_1165_2256)"/>
<path d="M10.9551 13C5.76925 13 1.50553 16.9474 1.00445 22.0014C0.949965 22.551 1.40293 23 1.95522 23C2.5075 23 2.94866 22.55 3.01686 22.002C3.50808 18.0547 6.87492 15 10.9552 15C11.2333 15 11.5081 15.0142 11.7789 15.0419C12.1006 15.0748 12.4254 14.975 12.654 14.7464L12.7775 14.6229C13.3089 14.0915 13.0798 13.1973 12.3354 13.0945C11.8842 13.0322 11.4234 13 10.9551 13Z" fill="url(#paint1_linear_1165_2256)"/>
<path d="M17.7929 11.7929C18.1834 11.4024 18.8166 11.4024 19.2071 11.7929L22.7071 15.2929C23.0976 15.6834 23.0976 16.3166 22.7071 16.7071C22.3166 17.0976 21.6834 17.0976 21.2929 16.7071L19.5 14.9142V22C19.5 22.5523 19.0523 23 18.5 23C17.9477 23 17.5 22.5523 17.5 22V14.9142L15.7071 16.7071C15.3166 17.0976 14.6834 17.0976 14.2929 16.7071C13.9024 16.3166 13.9024 15.6834 14.2929 15.2929L17.7929 11.7929Z" fill="#E6A117"/>
<defs>
<linearGradient id="paint0_linear_1165_2256" x1="1" y1="12" x2="23" y2="12" gradientUnits="userSpaceOnUse">
<stop stop-color="#00ADAD"/>
<stop offset="1" stop-color="#008080"/>
</linearGradient>
<linearGradient id="paint1_linear_1165_2256" x1="1" y1="12" x2="23" y2="12" gradientUnits="userSpaceOnUse">
<stop stop-color="#00ADAD"/>
<stop offset="1" stop-color="#008080"/>
</linearGradient>
</defs>
</svg>
