<svg width="24" height="24" viewBox="0 0 24 24" fill="none" xmlns="http://www.w3.org/2000/svg">
<path fill-rule="evenodd" clip-rule="evenodd" d="M12 20C16.4183 20 20 16.4183 20 12C20 7.58172 16.4183 4 12 4C7.58172 4 4 7.58172 4 12C4 16.4183 7.58172 20 12 20ZM12 22C17.5228 22 22 17.5228 22 12C22 6.47715 17.5228 2 12 2C6.47715 2 2 6.47715 2 12C2 17.5228 6.47715 22 12 22Z" fill="url(#paint0_linear_1342_4181)"/>
<circle cx="8.5" cy="10.5" r="1.5" fill="#E5A117"/>
<circle cx="15.5" cy="10.5" r="1.5" fill="#E5A117"/>
<path fill-rule="evenodd" clip-rule="evenodd" d="M8.68306 14.5513C8.15912 14.726 7.87595 15.2923 8.0506 15.8162C8.22525 16.3402 8.78786 16.6119 9.31528 16.4481C9.38724 16.4257 9.4594 16.4041 9.53182 16.3834C9.68014 16.341 9.89501 16.2837 10.1537 16.2262C10.6786 16.1095 11.3501 16 11.9993 16C12.6485 16 13.32 16.1095 13.8449 16.2262C14.1036 16.2837 14.3184 16.341 14.4668 16.3834C14.5393 16.4041 14.6116 16.4258 14.6837 16.4482C15.211 16.6121 15.7732 16.3405 15.9478 15.8166C16.1225 15.2925 15.8423 14.7166 15.3154 14.5505C15.216 14.5192 15.1164 14.489 15.0162 14.4604C14.8364 14.409 14.5825 14.3413 14.2787 14.2738C13.6786 14.1405 12.8501 14 11.9993 14C11.1485 14 10.32 14.1405 9.71986 14.2738C9.37107 14.3513 9.02257 14.4392 8.68306 14.5513Z" fill="#E5A117"/>
<defs>
<linearGradient id="paint0_linear_1342_4181" x1="2" y1="12" x2="22" y2="12" gradientUnits="userSpaceOnUse">
<stop stop-color="#00ADAD"/>
<stop offset="1" stop-color="#008080"/>
</linearGradient>
</defs>
</svg>
