<svg width="26" height="17" viewBox="0 0 26 17" fill="none" xmlns="http://www.w3.org/2000/svg">
<path d="M15.7818 16.348C16.6512 17.2173 18.0606 17.2173 18.93 16.348L25.1472 10.1308C26.0166 9.26143 26.0166 7.85195 25.1472 6.98261L18.93 0.765383C18.0606 -0.103959 16.6512 -0.103956 15.7818 0.765386C14.9125 1.63473 14.9125 3.04421 15.7818 3.91355L18.1989 6.3306L2.42531 6.3306C1.19587 6.3306 0.199219 7.32726 0.199219 8.55669C0.199219 9.78612 1.19587 10.7828 2.42531 10.7828H18.1989C18.1989 10.7828 16.8979 12.0837 15.7814 13.2002C14.9121 14.0696 14.9125 15.4787 15.7818 16.348Z" fill="#FABD45"/>
<path d="M15.7818 16.348C16.6512 17.2173 18.0606 17.2173 18.93 16.348L25.1472 10.1308C26.0166 9.26143 26.0166 7.85195 25.1472 6.98261L18.93 0.765383C18.0606 -0.103959 16.6512 -0.103956 15.7818 0.765386C14.9125 1.63473 14.9125 3.04421 15.7818 3.91355L18.1989 6.3306L2.42531 6.3306C1.19587 6.3306 0.199219 7.32726 0.199219 8.55669C0.199219 9.78612 1.19587 10.7828 2.42531 10.7828H18.1989C18.1989 10.7828 16.8979 12.0837 15.7814 13.2002C14.9121 14.0696 14.9125 15.4787 15.7818 16.348Z" fill="url(#paint0_linear_1892_3981)" fill-opacity="0.8"/>
<defs>
<linearGradient id="paint0_linear_1892_3981" x1="3.69404" y1="16.9124" x2="17.7977" y2="-4.64222" gradientUnits="userSpaceOnUse">
<stop stop-color="white"/>
<stop offset="1" stop-color="white" stop-opacity="0"/>
</linearGradient>
</defs>
</svg>
