<svg width="27" height="26" viewBox="0 0 27 26" fill="none" xmlns="http://www.w3.org/2000/svg">
<path d="M25.8775 9.10021L17.9431 7.94708L14.3962 0.756457C14.2993 0.559582 14.14 0.400207 13.9431 0.303332C13.4493 0.0595819 12.8493 0.262707 12.6025 0.756457L9.05558 7.94708L1.1212 9.10021C0.902451 9.13146 0.702451 9.23458 0.549326 9.39083C0.364207 9.5811 0.262197 9.83708 0.265713 10.1025C0.269229 10.368 0.377982 10.6212 0.568076 10.8065L6.3087 16.4033L4.95245 24.3065C4.92065 24.4903 4.94099 24.6794 5.01118 24.8523C5.08136 25.0251 5.19858 25.1749 5.34954 25.2845C5.5005 25.3941 5.67916 25.4593 5.86526 25.4726C6.05136 25.4858 6.23746 25.4467 6.40245 25.3596L13.4993 21.6283L20.5962 25.3596C20.79 25.4627 21.015 25.4971 21.2306 25.4596C21.7743 25.3658 22.14 24.8502 22.0462 24.3065L20.69 16.4033L26.4306 10.8065C26.5868 10.6533 26.69 10.4533 26.7212 10.2346C26.8056 9.68771 26.4243 9.18146 25.8775 9.10021V9.10021Z" fill="#FABD45"/>
<path d="M25.8775 9.10021L17.9431 7.94708L14.3962 0.756457C14.2993 0.559582 14.14 0.400207 13.9431 0.303332C13.4493 0.0595819 12.8493 0.262707 12.6025 0.756457L9.05558 7.94708L1.1212 9.10021C0.902451 9.13146 0.702451 9.23458 0.549326 9.39083C0.364207 9.5811 0.262197 9.83708 0.265713 10.1025C0.269229 10.368 0.377982 10.6212 0.568076 10.8065L6.3087 16.4033L4.95245 24.3065C4.92065 24.4903 4.94099 24.6794 5.01118 24.8523C5.08136 25.0251 5.19858 25.1749 5.34954 25.2845C5.5005 25.3941 5.67916 25.4593 5.86526 25.4726C6.05136 25.4858 6.23746 25.4467 6.40245 25.3596L13.4993 21.6283L20.5962 25.3596C20.79 25.4627 21.015 25.4971 21.2306 25.4596C21.7743 25.3658 22.14 24.8502 22.0462 24.3065L20.69 16.4033L26.4306 10.8065C26.5868 10.6533 26.69 10.4533 26.7212 10.2346C26.8056 9.68771 26.4243 9.18146 25.8775 9.10021V9.10021Z" fill="url(#paint0_linear_1617_3883)" fill-opacity="0.8"/>
<defs>
<linearGradient id="paint0_linear_1617_3883" x1="0.402937" y1="3.65064" x2="23.6103" y2="27.757" gradientUnits="userSpaceOnUse">
<stop stop-color="white"/>
<stop offset="1" stop-color="white" stop-opacity="0"/>
</linearGradient>
</defs>
</svg>
