<svg width="20" height="20" viewBox="0 0 20 20" fill="none" xmlns="http://www.w3.org/2000/svg">
<path d="M17.7359 7.56251L12.7769 6.8418L10.5601 2.34766C10.4996 2.22462 10.4 2.12501 10.2769 2.06446C9.96833 1.91212 9.59333 2.03907 9.43903 2.34766L7.22223 6.8418L2.26325 7.56251C2.12653 7.58204 2.00153 7.64649 1.90583 7.74415C1.79013 7.86307 1.72637 8.02306 1.72857 8.18896C1.73077 8.35486 1.79874 8.5131 1.91755 8.62891L5.50544 12.127L4.65778 17.0664C4.6379 17.1813 4.65062 17.2995 4.69449 17.4075C4.73835 17.5156 4.81161 17.6092 4.90596 17.6777C5.00031 17.7462 5.11198 17.7869 5.22829 17.7952C5.3446 17.8035 5.46091 17.7791 5.56403 17.7246L9.99958 15.3926L14.4351 17.7246C14.5562 17.7891 14.6968 17.8106 14.8316 17.7871C15.1715 17.7285 15.4 17.4063 15.3414 17.0664L14.4937 12.127L18.0816 8.62891C18.1793 8.53321 18.2437 8.40821 18.2633 8.27149C18.316 7.92969 18.0777 7.61329 17.7359 7.56251Z" fill="#E6A117"/>
</svg>
