<svg width="24" height="24" viewBox="0 0 24 24" fill="none" xmlns="http://www.w3.org/2000/svg">
<path fill-rule="evenodd" clip-rule="evenodd" d="M16.1213 2.87868C16.6839 3.44129 17 4.20435 17 5H19C19.7956 5 20.5587 5.31607 21.1213 5.87868C21.6839 6.44129 22 7.20435 22 8V19C22 19.7956 21.6839 20.5587 21.1213 21.1213C20.5587 21.6839 19.7956 22 19 22H5C4.20435 22 3.44129 21.6839 2.87868 21.1213C2.31607 20.5587 2 19.7956 2 19V8C2 7.20435 2.31607 6.44129 2.87868 5.87868C3.44129 5.31607 4.20435 5 5 5H7C7 4.20435 7.31607 3.44129 7.87868 2.87868C8.44129 2.31607 9.20435 2 10 2H14C14.7956 2 15.5587 2.31607 16.1213 2.87868ZM10 4H14C14.2652 4 14.5196 4.10536 14.7071 4.29289C14.8946 4.48043 15 4.73478 15 5H9C9 4.73478 9.10536 4.48043 9.29289 4.29289C9.48043 4.10536 9.73478 4 10 4ZM19 7H5C4.73478 7 4.48043 7.10536 4.29289 7.29289C4.10536 7.48043 4 7.73478 4 8V11H20V8C20 7.73478 19.8946 7.48043 19.7071 7.29289C19.5196 7.10536 19.2652 7 19 7ZM20 13H4V19C4 19.2652 4.10536 19.5196 4.29289 19.7071C4.48043 19.8946 4.73478 20 5 20H19C19.2652 20 19.5196 19.8946 19.7071 19.7071C19.8946 19.5196 20 19.2652 20 19V13Z" fill="url(#paint0_linear_1165_2255)"/>
<rect x="7" y="10" width="2" height="4" rx="1" fill="#E6A117"/>
<rect x="15" y="10" width="2" height="4" rx="1" fill="#E6A117"/>
<defs>
<linearGradient id="paint0_linear_1165_2255" x1="2" y1="12" x2="22" y2="12" gradientUnits="userSpaceOnUse">
<stop stop-color="#00ADAD"/>
<stop offset="1" stop-color="#008080"/>
</linearGradient>
</defs>
</svg>
