<svg width="113" height="73" viewBox="0 0 113 73" fill="none" xmlns="http://www.w3.org/2000/svg">
<path opacity="0.65" d="M17.4105 72.598C11.3026 72.5743 6.04688 71.071 1.64347 68.0881C-2.73627 65.1051 -6.10985 60.7846 -8.47727 55.1264C-10.821 49.4683 -11.9811 42.6619 -11.9574 34.7074C-11.9574 26.7765 -10.7855 20.0175 -8.44176 14.4304C-6.07434 8.84327 -2.70076 4.59375 1.67898 1.68182C6.08239 -1.25379 11.3262 -2.72159 17.4105 -2.72159C23.4948 -2.72159 28.7268 -1.25379 33.1065 1.68182C37.5099 4.61742 40.8954 8.87879 43.2628 14.4659C45.6302 20.0294 46.8021 26.7765 46.7784 34.7074C46.7784 42.6856 45.5947 49.5038 43.2273 55.1619C40.8835 60.8201 37.5218 65.1406 33.142 68.1236C28.7623 71.1065 23.5185 72.598 17.4105 72.598ZM17.4105 59.8494C21.5772 59.8494 24.9034 57.7543 27.3892 53.5639C29.875 49.3736 31.1061 43.0881 31.0824 34.7074C31.0824 29.1913 30.5142 24.5985 29.3778 20.929C28.2652 17.2595 26.679 14.5014 24.6193 12.6548C22.5833 10.8082 20.1804 9.88494 17.4105 9.88494C13.2675 9.88494 9.95313 11.9564 7.46733 16.0994C4.98153 20.2424 3.7268 26.4451 3.70312 34.7074C3.70312 40.2945 4.25947 44.9583 5.37216 48.6989C6.50852 52.4157 8.10653 55.2093 10.1662 57.0795C12.2259 58.9261 14.6406 59.8494 17.4105 59.8494ZM84.6246 71.9943C79.3216 71.9943 74.5986 71.0829 70.4556 69.2599C66.3363 67.4134 63.0811 64.8802 60.69 61.6605C58.3226 58.4171 57.1033 54.6766 57.0323 50.4389H72.5153C72.61 52.2145 73.19 53.777 74.2553 55.1264C75.3443 56.4522 76.7885 57.482 78.5877 58.2159C80.387 58.9498 82.4111 59.3168 84.6602 59.3168C87.0039 59.3168 89.0754 58.9025 90.8746 58.0739C92.6739 57.2453 94.0825 56.0971 95.1005 54.6293C96.1185 53.1615 96.6275 51.4687 96.6275 49.5511C96.6275 47.6098 96.083 45.8935 94.994 44.402C93.9286 42.8868 92.3898 41.7031 90.3775 40.8509C88.3888 39.9986 86.0214 39.5724 83.2752 39.5724H76.4925V28.2798H83.2752C85.5953 28.2798 87.6431 27.8774 89.4187 27.0724C91.2179 26.2675 92.6147 25.1548 93.609 23.7344C94.6033 22.2902 95.1005 20.6094 95.1005 18.6918C95.1005 16.8688 94.6625 15.2708 93.7866 13.8977C92.9343 12.5009 91.7269 11.4119 90.1644 10.6307C88.6256 9.84943 86.8264 9.45881 84.7667 9.45881C82.6834 9.45881 80.7776 9.83759 79.0494 10.5952C77.3211 11.3291 75.9362 12.3826 74.8945 13.7557C73.8529 15.1288 73.2965 16.7386 73.2255 18.5852H58.4883C58.5593 14.3949 59.7549 10.7017 62.0749 7.50568C64.395 4.30966 67.52 1.81202 71.4499 0.0127814C75.4035 -1.81014 79.8661 -2.72159 84.8377 -2.72159C89.8567 -2.72159 94.2482 -1.81014 98.0124 0.0127814C101.777 1.8357 104.7 4.29782 106.784 7.39914C108.891 10.4768 109.932 13.9332 109.909 17.7685C109.932 21.8404 108.666 25.2377 106.109 27.9602C103.576 30.6828 100.273 32.411 96.2013 33.1449V33.7131C101.552 34.3996 105.624 36.258 108.417 39.2884C111.234 42.295 112.631 46.0592 112.608 50.581C112.631 54.724 111.436 58.4053 109.021 61.625C106.63 64.8447 103.327 67.3778 99.1133 69.2244C94.8993 71.071 90.0697 71.9943 84.6246 71.9943Z" fill="#FFEDCA"/>
</svg>
