<svg width="20" height="20" viewBox="0 0 20 20" fill="none" xmlns="http://www.w3.org/2000/svg">
<path d="M15.3914 13.7423C15.3981 13.4521 15.5496 13.1889 15.7712 13.0014C17.1516 11.8333 18 10.2472 18 8.5C18 4.91015 14.4183 2 10 2C5.58172 2 2 4.91015 2 8.5C2 12.0899 5.58172 15 10 15C10.2432 15 10.4838 14.9912 10.7214 14.9739C10.8646 14.9635 11.0062 15.0116 11.1122 15.1084C11.6723 15.6199 12.3656 16.1828 13 16.5C14.3947 17.1974 15.7894 17.6516 16.5059 17.8626C16.6808 17.9141 16.8217 17.7213 16.7269 17.5656C16.356 16.9568 15.7148 15.8313 15.5 15C15.4033 14.6258 15.3817 14.1655 15.3914 13.7423Z" fill="#FABD45"/>
</svg>
