<svg width="20" height="20" viewBox="0 0 20 20" fill="none" xmlns="http://www.w3.org/2000/svg">
<path d="M5.4075 11.7391C4.86417 12.2825 4.86417 13.1634 5.4075 13.7067L9.29327 17.5925C9.83661 18.1358 10.7175 18.1358 11.2609 17.5925L15.1466 13.7067C15.69 13.1634 15.69 12.2825 15.1466 11.7391C14.6033 11.1958 13.7224 11.1958 13.179 11.7391L11.6684 13.2498V3.3913C11.6684 2.62291 11.0455 2 10.2771 2C9.50867 2 8.88576 2.62291 8.88576 3.3913V13.2498C8.88576 13.2498 8.07266 12.4367 7.37485 11.7389C6.83152 11.1955 5.95084 11.1958 5.4075 11.7391Z" fill="#FABD45"/>
</svg>
