<svg width="24" height="24" viewBox="0 0 24 24" fill="none" xmlns="http://www.w3.org/2000/svg">
<path d="M21.3291 12.9096C21.4191 14.4596 20.7091 15.9496 19.4391 16.8596L20.2091 18.3496C20.4391 18.7996 20.4691 19.3296 20.2691 19.7996C20.0791 20.2696 19.6891 20.6396 19.2091 20.7996L18.4191 21.0496C18.0901 21.1604 17.735 21.167 17.4021 21.0686C17.0693 20.9702 16.7749 20.7715 16.5591 20.4996L14.4391 17.9996C13.5491 17.8496 12.7091 17.4696 11.9991 16.8996C11.4991 17.0496 10.9991 17.1296 10.4991 17.1296C9.61908 17.1296 8.73908 16.8596 7.99908 16.3396C7.46908 16.4996 6.92908 16.5696 6.37908 16.5596C5.58908 16.5696 4.80908 16.4096 4.07908 16.1096C3.37642 15.7961 2.77602 15.2914 2.34636 14.6531C1.9167 14.0148 1.67509 13.2686 1.64908 12.4996C1.56908 11.7796 1.68908 11.0496 1.99908 10.3896C1.70908 9.63958 1.67908 8.81958 1.92908 8.05958C2.29908 7.10958 2.99908 6.31958 3.86908 5.81958C4.44908 4.12958 6.07908 2.99958 7.86908 3.11958C9.46908 1.61958 11.9191 1.45958 13.6991 2.74958C14.1191 2.63958 14.5591 2.57958 14.9991 2.57958C16.3591 2.54958 17.6491 3.14958 18.4991 4.21958C20.5391 4.74958 21.9991 6.56958 22.0791 8.68958C22.1291 9.79958 21.8291 10.8896 21.2191 11.8196C21.2891 12.1796 21.3291 12.5396 21.3291 12.9096ZM16.3291 11.4996C16.8991 11.5696 17.3491 11.9996 17.3491 12.5696C17.3491 12.8348 17.2437 13.0892 17.0562 13.2767C16.8687 13.4642 16.6143 13.5696 16.3491 13.5696H15.7191C15.3991 14.4696 14.8391 15.2596 14.0991 15.8596C14.3491 15.9496 14.6091 15.9996 14.8691 16.0696C19.9991 15.9996 19.3991 12.8696 19.3991 12.8196C19.3725 12.1327 19.0742 11.4844 18.5698 11.0175C18.0653 10.5505 17.396 10.3031 16.7091 10.3296C16.4439 10.3296 16.1895 10.2242 16.002 10.0367C15.8144 9.84915 15.7091 9.5948 15.7091 9.32958C15.7091 9.06437 15.8144 8.81001 16.002 8.62248C16.1895 8.43494 16.4439 8.32958 16.7091 8.32958C17.9391 8.35958 19.1191 8.81958 20.0391 9.62958C20.0891 9.33958 20.1191 9.03958 20.1191 8.73958C20.0591 7.49958 19.4991 6.41958 17.2491 6.20958C15.9991 3.24958 12.8491 4.88958 12.8491 5.80958C12.8191 6.03958 13.0591 6.52958 13.0991 6.55958C13.3643 6.55958 13.6187 6.66494 13.8062 6.85248C13.9937 7.04001 14.0991 7.29437 14.0991 7.55958C14.0991 8.10958 13.6491 8.55958 13.0991 8.55958C12.5691 8.53958 12.0691 8.33958 11.6691 7.99958C11.1891 8.30958 10.6391 8.49958 10.0691 8.55958C9.49908 8.60958 9.02908 8.20958 8.99908 7.65958C8.98066 7.52896 8.98913 7.39594 9.02397 7.26871C9.05882 7.14147 9.1193 7.0227 9.20171 6.91969C9.28412 6.81668 9.38672 6.7316 9.5032 6.66967C9.61968 6.60775 9.7476 6.57028 9.87908 6.55958C10.0391 6.53958 10.8191 6.41958 10.8191 5.78958C10.8191 5.12958 11.0691 4.49958 11.4991 3.99958C10.5791 3.74958 9.58908 4.07958 8.58908 5.28958C6.74908 4.99958 5.99908 5.24958 5.44908 7.19958C4.49908 7.66958 3.99908 7.99958 3.77908 8.99958C4.85908 8.77958 5.96908 8.86958 6.99908 9.24958C7.49908 9.43958 7.77908 9.99958 7.58908 10.5396C7.39908 11.0596 6.81908 11.3196 6.29908 11.1296C5.56908 10.8096 4.74908 10.7896 3.99908 11.0696C3.67908 11.3396 3.67908 11.8996 3.67908 12.3396C3.67908 13.0796 4.04908 13.7696 4.67908 14.1696C5.20908 14.4396 5.79908 14.5796 6.38908 14.5696C6.23908 14.3096 6.10908 14.0396 5.99908 13.7596C5.92036 13.5027 5.94434 13.2252 6.06598 12.9856C6.18762 12.746 6.39744 12.5629 6.65131 12.4748C6.90518 12.3867 7.18331 12.4006 7.42721 12.5133C7.67111 12.6261 7.86177 12.8291 7.95908 13.0796C8.35908 14.2196 9.37908 14.9996 10.5791 15.1296C11.9491 15.0596 13.1691 14.2496 13.7691 12.9996C13.9991 11.6196 15.1091 11.4996 16.3291 11.4996ZM18.3291 18.9696L17.7091 17.6696L16.9991 17.8296L17.9991 19.0796L18.3291 18.9696Z" fill="#008080"/>
<path d="M13.4281 9.66437C13.5974 9.85592 13.6868 10.105 13.6781 10.3605C13.6781 10.9005 13.2081 11.3105 12.6581 11.2805C12.4981 11.2805 12.3481 11.3305 12.2281 11.4305C12.0681 11.6505 11.9981 11.9205 11.9981 12.1905C11.9981 12.7405 11.5681 13.1905 10.9981 13.1905C10.7329 13.1905 10.4786 13.0851 10.291 12.8976C10.1035 12.71 9.99814 12.4557 9.99814 12.1905C9.96814 11.3805 10.2681 10.5805 10.8381 10.0005C11.3681 9.53048 12.0581 9.29048 12.7681 9.33048C13.0227 9.35333 13.2589 9.47281 13.4281 9.66437Z" fill="#FABD45"/>
</svg>
