<svg width="20" height="20" viewBox="0 0 20 20" fill="none" xmlns="http://www.w3.org/2000/svg">
<path d="M11.125 2.125C11.125 1.82663 11.0065 1.54048 10.7955 1.3295C10.5845 1.11853 10.2984 1 10 1C9.70163 1 9.41548 1.11853 9.20451 1.3295C8.99353 1.54048 8.875 1.82663 8.875 2.125V3.25C8.875 3.54837 8.99353 3.83452 9.20451 4.04549C9.41548 4.25647 9.70163 4.375 10 4.375C10.2984 4.375 10.5845 4.25647 10.7955 4.04549C11.0065 3.83452 11.125 3.54837 11.125 3.25V2.125ZM16.3641 5.22662C16.5691 5.01445 16.6824 4.73027 16.6799 4.4353C16.6773 4.14033 16.559 3.85816 16.3504 3.64958C16.1418 3.44099 15.8597 3.32268 15.5647 3.32012C15.2697 3.31755 14.9856 3.43095 14.7734 3.63587L13.978 4.43125C13.7731 4.64343 13.6597 4.92761 13.6622 5.22258C13.6648 5.51755 13.7831 5.79971 13.9917 6.0083C14.2003 6.21688 14.4825 6.3352 14.7774 6.33776C15.0724 6.34032 15.3566 6.22693 15.5687 6.022L16.3641 5.22662ZM19 10C19 10.2984 18.8815 10.5845 18.6705 10.7955C18.4595 11.0065 18.1734 11.125 17.875 11.125H16.75C16.4516 11.125 16.1655 11.0065 15.9545 10.7955C15.7435 10.5845 15.625 10.2984 15.625 10C15.625 9.70163 15.7435 9.41548 15.9545 9.20451C16.1655 8.99353 16.4516 8.875 16.75 8.875H17.875C18.1734 8.875 18.4595 8.99353 18.6705 9.20451C18.8815 9.41548 19 9.70163 19 10ZM4.43125 6.022C4.53503 6.12945 4.65917 6.21515 4.79642 6.27411C4.93367 6.33307 5.0813 6.36411 5.23067 6.36541C5.38005 6.3667 5.52819 6.33824 5.66645 6.28167C5.80471 6.22511 5.93032 6.14157 6.03594 6.03594C6.14157 5.93032 6.22511 5.80471 6.28167 5.66645C6.33824 5.52819 6.3667 5.38005 6.36541 5.23067C6.36411 5.0813 6.33307 4.93367 6.27411 4.79642C6.21515 4.65917 6.12945 4.53503 6.022 4.43125L5.22662 3.63587C5.01445 3.43095 4.73027 3.31755 4.4353 3.32012C4.14033 3.32268 3.85816 3.44099 3.64958 3.64958C3.44099 3.85816 3.32268 4.14033 3.32012 4.4353C3.31755 4.73027 3.43095 5.01445 3.63587 5.22662L4.43125 6.022V6.022ZM4.375 10C4.375 10.2984 4.25647 10.5845 4.04549 10.7955C3.83452 11.0065 3.54837 11.125 3.25 11.125H2.125C1.82663 11.125 1.54048 11.0065 1.3295 10.7955C1.11853 10.5845 1 10.2984 1 10C1 9.70163 1.11853 9.41548 1.3295 9.20451C1.54048 8.99353 1.82663 8.875 2.125 8.875H3.25C3.54837 8.875 3.83452 8.99353 4.04549 9.20451C4.25647 9.41548 4.375 9.70163 4.375 10ZM7.75 16.75V15.625H12.25V16.75C12.25 17.3467 12.0129 17.919 11.591 18.341C11.169 18.7629 10.5967 19 10 19C9.40326 19 8.83097 18.7629 8.40901 18.341C7.98705 17.919 7.75 17.3467 7.75 16.75V16.75ZM12.25 14.5C12.2669 14.1175 12.484 13.7732 12.7866 13.5336C13.5209 12.9545 14.0565 12.1611 14.319 11.2636C14.5816 10.366 14.5579 9.40899 14.2515 8.52549C13.945 7.642 13.3709 6.87592 12.609 6.33375C11.8471 5.79158 10.9351 5.50025 10 5.50025C9.06486 5.50025 8.15295 5.79158 7.39102 6.33375C6.62909 6.87592 6.05499 7.642 5.74852 8.52549C5.44205 9.40899 5.41844 10.366 5.68096 11.2636C5.94349 12.1611 6.47911 12.9545 7.21337 13.5336C7.51712 13.7732 7.73313 14.1175 7.74888 14.5H12.2511H12.25Z" fill="#FABD45"/>
</svg>
