<svg width="24" height="24" viewBox="0 0 24 24" fill="none" xmlns="http://www.w3.org/2000/svg">
<path fill-rule="evenodd" clip-rule="evenodd" d="M7 3C7 2.44772 7.44772 2 8 2C8.55228 2 9 2.44772 9 3H15C15 2.44772 15.4477 2 16 2C16.5523 2 17 2.44772 17 3H19C19.7956 3 20.5587 3.31607 21.1213 3.87868C21.6839 4.44129 22 5.20435 22 6V19C22 19.7956 21.6839 20.5587 21.1213 21.1213C20.5587 21.6839 19.7956 22 19 22H5C4.20435 22 3.44129 21.6839 2.87868 21.1213C2.31607 20.5587 2 19.7956 2 19V6C2 5.20435 2.31607 4.44129 2.87868 3.87868C3.44129 3.31607 4.20435 3 5 3H7ZM15 6C15 6.55228 15.4477 7 16 7C16.5523 7 17 6.55228 17 6V5L19 5C19.2652 5 19.5196 5.10536 19.7071 5.29289C19.8946 5.48043 20 5.73478 20 6V8H4V6C4 5.73478 4.10536 5.48043 4.29289 5.29289C4.48043 5.10536 4.73478 5 5 5L7 5V6C7 6.55228 7.44772 7 8 7C8.55228 7 9 6.55228 9 6V5H15V6ZM20 10H4V19C4 19.2652 4.10536 19.5196 4.29289 19.7071C4.48043 19.8946 4.73478 20 5 20H19C19.2652 20 19.5196 19.8946 19.7071 19.7071C19.8946 19.5196 20 19.2652 20 19V10Z" fill="#008080"/>
<path d="M6 12H8V14H6V12Z" fill="#FABD45"/>
<path d="M6 16H8V18H6V16Z" fill="#FABD45"/>
<path d="M11 12H9V14H11V12Z" fill="#FABD45"/>
<path d="M9 16H11V18H9V16Z" fill="#FABD45"/>
<path d="M14 12H12V14H14V12Z" fill="#FABD45"/>
<path d="M15 12H17V14H15V12Z" fill="#FABD45"/>
<path d="M14 16H12V18H14V16Z" fill="#FABD45"/>
</svg>
