<svg width="24" height="24" viewBox="0 0 24 24" fill="none" xmlns="http://www.w3.org/2000/svg">
<path d="M8.65836 2.44743C8.90535 1.95345 8.70512 1.35278 8.21115 1.10579C7.71717 0.858803 7.11649 1.05903 6.8695 1.55301L6.31672 2.65858C5.89443 3.50316 5.89443 4.49728 6.31672 5.34186L6.85045 6.40932C7.01093 6.73029 6.98713 7.11265 6.78807 7.41123L6.43188 7.94552C6.12553 8.40505 6.2497 9.02592 6.70923 9.33227C7.16876 9.63862 7.78963 9.51445 8.09598 9.05492L8.45217 8.52063C9.04935 7.62487 9.12076 6.47781 8.6393 5.51489L8.10557 4.44743C7.96481 4.16591 7.96481 3.83453 8.10557 3.55301L8.65836 2.44743Z" fill="#FABD45"/>
<path d="M12.422 2.44743C12.669 1.95345 12.4688 1.35278 11.9748 1.10579C11.4808 0.858803 10.8802 1.05903 10.6332 1.55301L10.0804 2.65858C9.6581 3.50316 9.6581 4.49728 10.0804 5.34186L10.6141 6.40932C10.7746 6.73029 10.7508 7.11265 10.5517 7.41123L10.1956 7.94552C9.8892 8.40505 10.0134 9.02592 10.4729 9.33227C10.9324 9.63862 11.5533 9.51445 11.8597 9.05492L12.2158 8.52063C12.813 7.62487 12.8844 6.47781 12.403 5.51489L11.8692 4.44743C11.7285 4.16591 11.7285 3.83453 11.8692 3.55301L12.422 2.44743Z" fill="#FABD45"/>
<path fill-rule="evenodd" clip-rule="evenodd" d="M2 17V11H18C20.2091 11 22 12.7909 22 15C22 17.2091 20.2091 19 18 19H16.6586C15.8349 21.3304 13.6124 23 11 23H8C4.68629 23 2 20.3137 2 17ZM4 13H15V17C15 19.2091 13.2091 21 11 21H8C5.79086 21 4 19.2091 4 17V13ZM17 17H18C19.1046 17 20 16.1046 20 15C20 13.8954 19.1046 13 18 13H17V17Z" fill="#008080"/>
</svg>
