<svg width="24" height="24" viewBox="0 0 24 24" fill="none" xmlns="http://www.w3.org/2000/svg">
<path fill-rule="evenodd" clip-rule="evenodd" d="M2.64863 21.5282C2.54 21.784 2.749 22.07 3.024 22.026C3.21279 21.9951 3.40127 21.9624 3.58942 21.9278L3.59051 21.9276C3.72864 21.9023 3.8666 21.8759 4.00437 21.8486C4.21444 21.8069 4.41769 21.7641 4.61422 21.7205C4.65492 21.7114 4.69532 21.7024 4.73544 21.6933C6.501 21.2924 7.70987 20.8258 8.42936 20.4948C8.65256 20.3921 8.90371 20.3659 9.14293 20.4219C10.079 20.6411 11.0377 20.7513 12 20.75C18.0748 20.75 23 16.4408 23 11.125C23 5.80925 18.0748 1.5 12 1.5C5.92525 1.5 1 5.80925 1 11.125C1 13.3856 1.89149 15.4663 3.38416 17.1091C3.58463 17.3298 3.6947 17.6222 3.65345 17.9174C3.55794 18.6011 3.39826 19.303 3.20315 19.9653C3.1961 19.9892 3.18901 20.0131 3.18187 20.0369C3.12037 20.2421 3.05554 20.4433 2.98825 20.6386L2.98412 20.6524C2.94425 20.7686 2.90278 20.8842 2.85971 20.9992C2.85883 21.0016 2.85794 21.0039 2.85706 21.0063C2.79127 21.1817 2.72177 21.3557 2.64863 21.5282ZM5.4003 19.4622C5.53642 18.8625 5.6415 18.2465 5.6996 17.6411C5.75656 17.0476 5.54577 16.4596 5.12469 16.0375C3.77027 14.6798 3 12.9597 3 11.125C3 7.15637 6.77056 3.5 12 3.5C17.2294 3.5 21 7.15637 21 11.125C21 15.0936 17.2294 18.75 12 18.75L11.9973 18.75C11.0827 18.7512 10.172 18.6325 9.28828 18.3968C8.8135 18.2702 8.30871 18.3228 7.87022 18.5445C7.47647 18.7437 6.67199 19.104 5.4003 19.4622Z" fill="#008080"/>
<circle cx="7.5" cy="11" r="1.5" fill="#FABD45"/>
<circle cx="12.5" cy="11" r="1.5" fill="#FABD45"/>
<circle cx="17.5" cy="11" r="1.5" fill="#FABD45"/>
</svg>
