<svg width="17" height="26" viewBox="0 0 17 26" fill="none" xmlns="http://www.w3.org/2000/svg">
<path d="M0.652006 15.7828C-0.217335 16.6521 -0.217335 18.0616 0.652006 18.931L6.86923 25.1482C7.73857 26.0175 9.14805 26.0175 10.0174 25.1482L16.2346 18.931C17.104 18.0616 17.104 16.6521 16.2346 15.7828C15.3653 14.9135 13.9558 14.9135 13.0865 15.7828L10.6694 18.1999V2.42628C10.6694 1.19685 9.67274 0.200195 8.44331 0.200195C7.21388 0.200195 6.21722 1.19685 6.21722 2.42628V18.1999C6.21722 18.1999 4.91626 16.8989 3.79977 15.7824C2.93043 14.9131 1.52135 14.9135 0.652006 15.7828Z" fill="#FABD45"/>
</svg>
