<svg width="24" height="24" viewBox="0 0 24 24" fill="none" xmlns="http://www.w3.org/2000/svg">
<path d="M9.32356 2.10666C10.9462 1.80906 12.6213 2.13959 14.0093 3.03126C15.1376 3.7561 16.0076 4.80767 16.5106 6.03502C17.0432 5.99182 17.5807 6.01986 18.1085 6.11949C18.941 6.27664 19.7309 6.60833 20.426 7.09272C21.1211 7.57712 21.7057 8.20324 22.1414 8.92987C22.5771 9.6565 22.854 10.4672 22.9538 11.3085C23.0536 12.1499 22.9741 13.0028 22.7205 13.8112C22.467 14.6196 22.045 15.3652 21.4826 15.9987C20.9201 16.6323 20.2298 17.1396 19.4571 17.4872C18.6845 17.8348 17.8469 18.0148 16.9997 18.0154C16.4474 18.0158 15.9994 17.5683 15.999 17.0161C15.9986 16.4638 16.446 16.0158 16.9983 16.0154C17.5632 16.015 18.1215 15.895 18.6366 15.6633C19.1517 15.4315 19.6119 15.0934 19.9869 14.671C20.3619 14.2486 20.6432 13.7515 20.8122 13.2126C20.9813 12.6737 21.0343 12.105 20.9677 11.5441C20.9012 10.9832 20.7166 10.4428 20.4262 9.95837C20.1357 9.47395 19.7459 9.05654 19.2825 8.73361C18.8191 8.41068 18.2926 8.18955 17.7375 8.08479C17.1872 7.98091 16.6212 7.99377 16.0762 8.12247L14.7616 8.48028C14.2287 8.62532 13.6792 8.3109 13.5341 7.77801C13.3891 7.24511 13.7035 6.69553 14.2364 6.55048L14.5146 6.47475C14.1553 5.76189 13.6099 5.15181 12.9283 4.71395C11.9674 4.09665 10.8077 3.86782 9.68435 4.07384C8.56097 4.27987 7.55796 4.90535 6.87864 5.82347C6.20566 6.73304 5.90025 7.8624 6.02248 8.98646C6.02614 9.00554 6.03186 9.03446 6.03965 9.07108C6.05587 9.14743 6.08039 9.25412 6.11292 9.37312C6.18471 9.63568 6.27069 9.86392 6.34631 9.98474C6.63936 10.4529 6.49743 11.0699 6.02931 11.363C5.56118 11.656 4.94413 11.5141 4.65108 11.046C4.54192 10.8716 4.45186 10.6795 4.37836 10.4934C4.04807 10.7072 3.76033 10.9857 3.53416 11.3154C3.12037 11.9187 2.94113 12.6524 3.03011 13.3785C3.1191 14.1047 3.47018 14.7733 4.0174 15.2589C4.56432 15.7442 5.26955 16.0131 6.0007 16.0154H6.99923C7.55152 16.0154 7.99923 16.4631 7.99923 17.0154C7.99923 17.5677 7.55152 18.0154 6.99923 18.0154H5.99923L5.99658 18.0154C4.77762 18.0121 3.60178 17.5639 2.69 16.7549C1.77821 15.9458 1.19323 14.8317 1.04496 13.6218C0.896697 12.4119 1.19535 11.1894 1.88481 10.1842C2.41504 9.41112 3.14832 8.8074 3.99642 8.43448C4.01014 7.07192 4.45224 5.74033 5.27088 4.6339C6.25211 3.30771 7.7009 2.40425 9.32356 2.10666Z" fill="#008080"/>
<path d="M8.49992 18.5C8.1094 18.8905 8.1094 19.5237 8.49992 19.9142L11.2928 22.7071C11.6833 23.0976 12.3165 23.0976 12.707 22.7071L15.4999 19.9142C15.8904 19.5237 15.8904 18.8905 15.4999 18.5C15.1094 18.1095 14.4762 18.1095 14.0857 18.5L12.9999 19.5858V12.5C12.9999 11.9477 12.5522 11.5 11.9999 11.5C11.4476 11.5 10.9999 11.9477 10.9999 12.5V19.5858C10.9999 19.5858 10.4155 19.0014 9.91396 18.4998C9.52343 18.1093 8.89045 18.1095 8.49992 18.5Z" fill="#FABD45"/>
</svg>
