<svg width="20" height="20" viewBox="0 0 20 20" fill="none" xmlns="http://www.w3.org/2000/svg">
<path d="M14.7256 8.39938H10.4506V9.97438C10.4506 11.0909 9.54219 11.9994 8.42563 11.9994C7.30907 11.9994 6.40063 11.0909 6.40063 9.97438V6.55439L4.57532 7.65126C4.03251 7.97469 3.70064 8.56251 3.70064 9.19251V10.5228L1.45064 11.8222C1.02033 12.0697 0.871267 12.6209 1.12158 13.0512L3.37157 16.9494C3.61907 17.3797 4.17032 17.5259 4.60064 17.2784L7.50875 15.5994H11.3506C12.3434 15.5994 13.1506 14.7922 13.1506 13.7994H13.6006C14.0984 13.7994 14.5006 13.3972 14.5006 12.8994V11.0994H14.7256C15.0997 11.0994 15.4006 10.7984 15.4006 10.4244V9.07438C15.4006 8.70032 15.0997 8.39938 14.7256 8.39938ZM18.8797 7.34751L16.6297 3.44939C16.3822 3.01908 15.8309 2.87283 15.4006 3.12033L12.4925 4.79939H9.61813C9.28063 4.79939 8.95156 4.89501 8.66469 5.0722L7.7225 5.66001C7.45813 5.82314 7.30063 6.11282 7.30063 6.4222V9.97438C7.30063 10.5959 7.80407 11.0994 8.42563 11.0994C9.04719 11.0994 9.55063 10.5959 9.55063 9.97438V7.49938H14.7256C15.5947 7.49938 16.3006 8.20532 16.3006 9.07438V9.87594L18.5506 8.57657C18.9809 8.32626 19.1272 7.77782 18.8797 7.34751V7.34751Z" fill="#FABD45"/>
</svg>
