<svg width="30" height="24" viewBox="0 0 30 24" fill="none" xmlns="http://www.w3.org/2000/svg">
<path d="M22.5606 9.43882H15.7206V11.9588C15.7206 13.7453 14.2671 15.1988 12.4806 15.1988C10.6941 15.1988 9.24062 13.7453 9.24062 11.9588V6.48682L6.32012 8.24182C5.45163 8.75932 4.92063 9.69982 4.92063 10.7078V12.8363L1.32063 14.9153C0.632136 15.3113 0.393636 16.1933 0.794135 16.8818L4.39413 23.1188C4.79013 23.8073 5.67213 24.0413 6.36063 23.6453L11.0136 20.9588H17.1606C18.7491 20.9588 20.0406 19.6673 20.0406 18.0788H20.7606C21.5571 18.0788 22.2006 17.4353 22.2006 16.6388V13.7588H22.5606C23.1591 13.7588 23.6406 13.2773 23.6406 12.6788V10.5188C23.6406 9.92031 23.1591 9.43882 22.5606 9.43882ZM29.2071 7.75582L25.6071 1.51883C25.2111 0.830331 24.3291 0.596332 23.6406 0.992331L18.9876 3.67883H14.3886C13.8486 3.67883 13.3221 3.83183 12.8631 4.11533L11.3556 5.05582C10.9326 5.31682 10.6806 5.78032 10.6806 6.27532V11.9588C10.6806 12.9533 11.4861 13.7588 12.4806 13.7588C13.4751 13.7588 14.2806 12.9533 14.2806 11.9588V7.99882H22.5606C23.9511 7.99882 25.0806 9.12832 25.0806 10.5188V11.8013L28.6806 9.72232C29.3691 9.32182 29.6031 8.44432 29.2071 7.75582V7.75582Z" fill="#FFD480"/>
</svg>
