<svg width="20" height="20" viewBox="0 0 20 20" fill="none" xmlns="http://www.w3.org/2000/svg">
<path d="M6.64 2H13.36C15.92 2 18 4.08 18 6.64V13.36C18 14.5906 17.5111 15.7708 16.641 16.641C15.7708 17.5111 14.5906 18 13.36 18H6.64C4.08 18 2 15.92 2 13.36V6.64C2 5.4094 2.48886 4.22919 3.35902 3.35902C4.22919 2.48886 5.4094 2 6.64 2M6.48 3.6C5.71618 3.6 4.98364 3.90343 4.44353 4.44353C3.90343 4.98364 3.6 5.71618 3.6 6.48V13.52C3.6 15.112 4.888 16.4 6.48 16.4H13.52C14.2838 16.4 15.0164 16.0966 15.5565 15.5565C16.0966 15.0164 16.4 14.2838 16.4 13.52V6.48C16.4 4.888 15.112 3.6 13.52 3.6H6.48ZM14.2 4.8C14.4652 4.8 14.7196 4.90536 14.9071 5.09289C15.0946 5.28043 15.2 5.53478 15.2 5.8C15.2 6.06522 15.0946 6.31957 14.9071 6.50711C14.7196 6.69464 14.4652 6.8 14.2 6.8C13.9348 6.8 13.6804 6.69464 13.4929 6.50711C13.3054 6.31957 13.2 6.06522 13.2 5.8C13.2 5.53478 13.3054 5.28043 13.4929 5.09289C13.6804 4.90536 13.9348 4.8 14.2 4.8ZM10 6C11.0609 6 12.0783 6.42143 12.8284 7.17157C13.5786 7.92172 14 8.93913 14 10C14 11.0609 13.5786 12.0783 12.8284 12.8284C12.0783 13.5786 11.0609 14 10 14C8.93913 14 7.92172 13.5786 7.17157 12.8284C6.42143 12.0783 6 11.0609 6 10C6 8.93913 6.42143 7.92172 7.17157 7.17157C7.92172 6.42143 8.93913 6 10 6M10 7.6C9.36348 7.6 8.75303 7.85286 8.30294 8.30294C7.85286 8.75303 7.6 9.36348 7.6 10C7.6 10.6365 7.85286 11.247 8.30294 11.6971C8.75303 12.1471 9.36348 12.4 10 12.4C10.6365 12.4 11.247 12.1471 11.6971 11.6971C12.1471 11.247 12.4 10.6365 12.4 10C12.4 9.36348 12.1471 8.75303 11.6971 8.30294C11.247 7.85286 10.6365 7.6 10 7.6Z" fill="#FABD45"/>
</svg>
