<svg width="26" height="17" viewBox="0 0 26 17" fill="none" xmlns="http://www.w3.org/2000/svg">
<path d="M15.7828 16.348C16.6521 17.2173 18.0616 17.2173 18.931 16.348L25.1482 10.1308C26.0175 9.26143 26.0175 7.85195 25.1482 6.98261L18.931 0.765383C18.0616 -0.103959 16.6521 -0.103956 15.7828 0.765386C14.9135 1.63473 14.9135 3.04421 15.7828 3.91355L18.1999 6.3306L2.42628 6.3306C1.19685 6.3306 0.200195 7.32726 0.200195 8.55669C0.200195 9.78612 1.19685 10.7828 2.42628 10.7828H18.1999C18.1999 10.7828 16.8989 12.0837 15.7824 13.2002C14.9131 14.0696 14.9135 15.4787 15.7828 16.348Z" fill="#FABD45"/>
</svg>
