<svg width="24" height="24" viewBox="0 0 24 24" fill="none" xmlns="http://www.w3.org/2000/svg">
<path d="M10.7175 2C11.2698 2 11.7175 2.44771 11.7175 3V7.94975C11.7175 8.50203 11.2698 8.94975 10.7175 8.94975C10.1652 8.94975 9.71751 8.50203 9.71751 7.94975L9.71751 5.41421L4.70711 10.4246C4.31658 10.8151 3.68342 10.8151 3.29289 10.4246C2.90237 10.0341 2.90237 9.40093 3.29289 9.01041L8.3033 4L5.76777 4C5.21548 4 4.76777 3.55229 4.76777 3C4.76777 2.44772 5.21548 2 5.76777 2L10.7175 2Z" fill="#FABD45"/>
<path d="M17 6C16.4477 6 16 6.44772 16 7V11H11C10.4477 11 10 11.4477 10 12V16H5C4.44772 16 4 16.4477 4 17V22C4 22.5523 4.44772 23 5 23C5.55228 23 6 22.5523 6 22V18H11C11.5523 18 12 17.5523 12 17V13H17C17.5523 13 18 12.5523 18 12V8H22C22.5523 8 23 7.55228 23 7C23 6.44772 22.5523 6 22 6H17Z" fill="#008080"/>
</svg>
